<svg width="40" height="40" viewBox="0 0 40 40" fill="none" xmlns="http://www.w3.org/2000/svg">
<circle cx="20" cy="20" r="20" fill="#13161C"/>
<path d="M29.928 18.607C29.726 18.119 29.293 18.002 29 17.974V15C29 13.897 28.103 13 27 13H21V11.61C21.305 11.336 21.5 10.942 21.5 10.5C21.5 10.1022 21.342 9.72064 21.0607 9.43934C20.7793 9.15804 20.3978 9 20 9C19.6022 9 19.2206 9.15804 18.9393 9.43934C18.658 9.72064 18.5 10.1022 18.5 10.5C18.5 10.942 18.695 11.336 19 11.61V13H13C11.897 13 11 13.897 11 15V17.997L10.918 18.003C10.666 18.0212 10.4302 18.1341 10.258 18.3191C10.0858 18.504 9.99009 18.7473 9.98999 19V21C9.98999 21.2652 10.0953 21.5196 10.2829 21.7071C10.4704 21.8946 10.7248 22 10.99 22H11V27C11 28.103 11.897 29 13 29H27C28.103 29 29 28.103 29 27V22C29.2652 22 29.5196 21.8946 29.7071 21.7071C29.8946 21.5196 30 21.2652 30 21V19.062C30.0115 18.9068 29.9869 18.7511 29.928 18.607ZM13 27V15H27L27.001 18.996L27 19V21L27.001 21.005L27.002 27H13Z" fill="white"/>
<path d="M16.5 21C17.3284 21 18 20.1046 18 19C18 17.8954 17.3284 17 16.5 17C15.6716 17 15 17.8954 15 19C15 20.1046 15.6716 21 16.5 21Z" fill="white"/>
<path d="M23.5 21C24.3284 21 25 20.1046 25 19C25 17.8954 24.3284 17 23.5 17C22.6716 17 22 17.8954 22 19C22 20.1046 22.6716 21 23.5 21Z" fill="white"/>
<path d="M16 23H24V25H16V23Z" fill="white"/>
</svg>
