<svg width="40" height="40" viewBox="0 0 40 40" fill="none" xmlns="http://www.w3.org/2000/svg">
<circle cx="20" cy="20" r="20" fill="#13161C"/>
<path d="M29.9282 19.607C29.7262 19.119 29.2932 19.002 29.0002 18.974V16C29.0002 14.897 28.1032 14 27.0002 14H21.0002V12.61C21.3052 12.336 21.5002 11.942 21.5002 11.5C21.5002 11.1022 21.3422 10.7206 21.0609 10.4393C20.7796 10.158 20.3981 10 20.0002 10C19.6024 10 19.2209 10.158 18.9396 10.4393C18.6583 10.7206 18.5002 11.1022 18.5002 11.5C18.5002 11.942 18.6952 12.336 19.0002 12.61V14H13.0002C11.8972 14 11.0002 14.897 11.0002 16V18.997L10.9182 19.003C10.6662 19.0212 10.4304 19.1341 10.2583 19.3191C10.0861 19.504 9.99034 19.7473 9.99023 20V22C9.99023 22.2652 10.0956 22.5196 10.2831 22.7071C10.4707 22.8946 10.725 23 10.9902 23H11.0002V28C11.0002 29.103 11.8972 30 13.0002 30H27.0002C28.1032 30 29.0002 29.103 29.0002 28V23C29.2655 23 29.5198 22.8946 29.7073 22.7071C29.8949 22.5196 30.0002 22.2652 30.0002 22V20.062C30.0117 19.9068 29.9871 19.7511 29.9282 19.607ZM13.0002 28V16H27.0002L27.0012 19.996L27.0002 20V22L27.0012 22.005L27.0022 28H13.0002Z" fill="#F4F4F4"/>
<path d="M16.5 22C17.3284 22 18 21.1046 18 20C18 18.8954 17.3284 18 16.5 18C15.6716 18 15 18.8954 15 20C15 21.1046 15.6716 22 16.5 22Z" fill="#F4F4F4"/>
<path d="M23.5 22C24.3284 22 25 21.1046 25 20C25 18.8954 24.3284 18 23.5 18C22.6716 18 22 18.8954 22 20C22 21.1046 22.6716 22 23.5 22Z" fill="#F4F4F4"/>
<path d="M16 24H24V26H16V24Z" fill="#F4F4F4"/>
</svg>
