<svg width="40" height="40" viewBox="0 0 40 40" fill="none" xmlns="http://www.w3.org/2000/svg">
<circle cx="20" cy="20" r="20" fill="white"/>
<path d="M29.9282 18.607C29.7262 18.119 29.2932 18.002 29.0002 17.974V15C29.0002 13.897 28.1032 13 27.0002 13H21.0002V11.61C21.3052 11.336 21.5002 10.942 21.5002 10.5C21.5002 10.1022 21.3422 9.72064 21.0609 9.43934C20.7796 9.15804 20.3981 9 20.0002 9C19.6024 9 19.2209 9.15804 18.9396 9.43934C18.6583 9.72064 18.5002 10.1022 18.5002 10.5C18.5002 10.942 18.6952 11.336 19.0002 11.61V13H13.0002C11.8972 13 11.0002 13.897 11.0002 15V17.997L10.9182 18.003C10.6662 18.0212 10.4304 18.1341 10.2583 18.3191C10.0861 18.504 9.99034 18.7473 9.99023 19V21C9.99023 21.2652 10.0956 21.5196 10.2831 21.7071C10.4707 21.8946 10.725 22 10.9902 22H11.0002V27C11.0002 28.103 11.8972 29 13.0002 29H27.0002C28.1032 29 29.0002 28.103 29.0002 27V22C29.2655 22 29.5198 21.8946 29.7073 21.7071C29.8949 21.5196 30.0002 21.2652 30.0002 21V19.062C30.0117 18.9068 29.9871 18.7511 29.9282 18.607ZM13.0002 27V15H27.0002L27.0012 18.996L27.0002 19V21L27.0012 21.005L27.0022 27H13.0002Z" fill="#13161C"/>
<path d="M16.5 21C17.3284 21 18 20.1046 18 19C18 17.8954 17.3284 17 16.5 17C15.6716 17 15 17.8954 15 19C15 20.1046 15.6716 21 16.5 21Z" fill="#13161C"/>
<path d="M23.5 21C24.3284 21 25 20.1046 25 19C25 17.8954 24.3284 17 23.5 17C22.6716 17 22 17.8954 22 19C22 20.1046 22.6716 21 23.5 21Z" fill="#13161C"/>
<path d="M16 23H24V25H16V23Z" fill="#13161C"/>
</svg>
