<svg width="20" height="20" viewBox="0 0 20 20" fill="none" xmlns="http://www.w3.org/2000/svg">
<path d="M19.928 9.607C19.726 9.119 19.293 9.002 19 8.974V6C19 4.897 18.103 4 17 4H11V2.61C11.305 2.336 11.5 1.942 11.5 1.5C11.5 1.10218 11.342 0.720644 11.0607 0.43934C10.7794 0.158035 10.3978 0 10 0C9.60217 0 9.22064 0.158035 8.93934 0.43934C8.65803 0.720644 8.5 1.10218 8.5 1.5C8.5 1.942 8.695 2.336 9 2.61V4H3C1.897 4 0.999998 4.897 0.999998 6V8.997L0.917998 9.003C0.665971 9.02119 0.430174 9.13412 0.258015 9.31908C0.0858565 9.50404 -0.00989989 9.74732 -0.0100021 10V12C-0.0100021 12.2652 0.0953547 12.5196 0.282891 12.7071C0.470427 12.8946 0.724781 13 0.989998 13H0.999998V18C0.999998 19.103 1.897 20 3 20H17C18.103 20 19 19.103 19 18V13C19.2652 13 19.5196 12.8946 19.7071 12.7071C19.8946 12.5196 20 12.2652 20 12V10.062C20.0115 9.90681 19.9869 9.75106 19.928 9.607ZM3 18V6H17L17.001 9.996L17 10V12L17.001 12.005L17.002 18H3Z" fill="#13161C"/>
</svg>
